<svg viewBox="0 0 600 280" width="600" height="280" xmlns="http://www.w3.org/2000/svg">
            <defs>
                <filter id="s1" x="-10%" y="-10%" width="120%" height="120%"><feDropShadow dx="0" dy="1" stdDeviation="2" flood-opacity="0.1"/></filter>
            </defs>
            <rect x="40" y="30" width="220" height="220" fill="none" stroke="#1e40af" stroke-width="2" rx="4"/>
            <rect x="40" y="30" width="220" height="32" fill="#dbeafe" rx="4"/>
            <rect x="40" y="58" width="220" height="4" fill="#dbeafe"/>
            <text x="150" y="52" text-anchor="middle" fill="#1e40af" font-family="Arial" font-size="13" font-weight="bold">User Mode</text>
            <rect x="340" y="30" width="220" height="220" fill="none" stroke="#991b1b" stroke-width="2" rx="4"/>
            <rect x="340" y="30" width="220" height="32" fill="#fecaca" rx="4"/>
            <rect x="340" y="58" width="220" height="4" fill="#fecaca"/>
            <text x="450" y="52" text-anchor="middle" fill="#991b1b" font-family="Arial" font-size="13" font-weight="bold">Kernel Mode</text>
            <rect x="70" y="90" width="160" height="55" fill="#eff6ff" stroke="#1e40af" stroke-width="1.5" rx="4" filter="url(#s1)"/>
            <text x="150" y="115" text-anchor="middle" fill="#1e3a5f" font-family="Arial" font-size="13" font-weight="500">Application</text>
            <text x="150" y="132" text-anchor="middle" fill="#64748b" font-family="Arial" font-size="10">(Ring 3)</text>
            <rect x="370" y="90" width="160" height="55" fill="#fef2f2" stroke="#991b1b" stroke-width="1.5" rx="4" filter="url(#s1)"/>
            <text x="450" y="115" text-anchor="middle" fill="#7f1d1d" font-family="Arial" font-size="13" font-weight="500">Driver</text>
            <text x="450" y="132" text-anchor="middle" fill="#64748b" font-family="Arial" font-size="10">(Ring 0)</text>
            <path d="M 230 108 L 370 108" fill="none" stroke="#cbd5e1" stroke-width="2"/>
            <path d="M 230 108 L 370 108" fill="none" stroke="#1e40af" stroke-width="2" stroke-dasharray="140" stroke-dashoffset="140">
                <animate attributeName="stroke-dashoffset" from="140" to="0" dur="1s" repeatCount="indefinite"/>
            </path>
            <polygon points="365,103 375,108 365,113" fill="#1e40af" opacity="0">
                <animate attributeName="opacity" values="0;0;1" dur="1s" keyTimes="0;0.9;1" repeatCount="indefinite"/>
            </polygon>
            <text x="300" y="98" text-anchor="middle" fill="#1e40af" font-family="Arial" font-size="10" font-weight="500">① DeviceIoControl()</text>
            <path d="M 370 130 L 230 130" fill="none" stroke="#cbd5e1" stroke-width="2" stroke-dasharray="5,3"/>
            <path d="M 370 130 L 230 130" fill="none" stroke="#059669" stroke-width="2" stroke-dasharray="5,3" stroke-dashoffset="140">
                <animate attributeName="stroke-dashoffset" from="140" to="0" dur="1s" begin="1.2s" repeatCount="indefinite"/>
            </path>
            <polygon points="235,125 225,130 235,135" fill="#059669" opacity="0">
                <animate attributeName="opacity" values="0;0;1" dur="1s" begin="1.2s" keyTimes="0;0.9;1" repeatCount="indefinite"/>
            </polygon>
            <text x="300" y="148" text-anchor="middle" fill="#059669" font-family="Arial" font-size="10" font-weight="500">② 결과 반환</text>
            <rect x="70" y="170" width="160" height="60" fill="#f8fafc" stroke="#cbd5e1" rx="4"/>
            <text x="150" y="193" text-anchor="middle" fill="#475569" font-family="Arial" font-size="10">IOCTL Code + Buffer</text>
            <text x="150" y="210" text-anchor="middle" fill="#94a3b8" font-family="Arial" font-size="9">사용자 요청</text>
            <rect x="370" y="170" width="160" height="60" fill="#f8fafc" stroke="#cbd5e1" rx="4"/>
            <text x="450" y="193" text-anchor="middle" fill="#475569" font-family="Arial" font-size="10">IRP 처리</text>
            <text x="450" y="210" text-anchor="middle" fill="#94a3b8" font-family="Arial" font-size="9">RequestorMode 설정</text>
        </svg>